<svg width="144" height="40" viewBox="0 0 144 40" fill="none" xmlns="http://www.w3.org/2000/svg">
<path fill-rule="evenodd" clip-rule="evenodd" d="M15 5C20.6076 5 23.4115 4.99985 25.5 6.20556C26.8682 6.99548 28.0046 8.13183 28.7945 9.5C30.0002 11.5885 30 14.3924 30 20C30 25.6076 30.0002 28.4115 28.7945 30.5C28.0046 31.8682 26.8682 33.0046 25.5 33.7945C23.4115 35.0002 20.6076 35 15 35C9.3924 35 6.58845 35.0002 4.5 33.7945C3.13183 33.0046 1.99548 31.8682 1.20556 30.5C-0.000153691 28.4115 0 25.6076 0 20C0 14.3924 -0.000153691 11.5885 1.20556 9.5C1.99548 8.13183 3.13183 6.99548 4.5 6.20556C6.58845 4.99985 9.3924 5 15 5ZM16.5 8C9.87255 8 4.5 13.3725 4.5 20C4.5 26.6275 9.87255 32 16.5 32C23.1275 32 28.5 26.6275 28.5 20C28.5 13.3725 23.1275 8 16.5 8Z" fill="#615FFF"/>
<path d="M28 20C28 23.866 24.4182 27 20 27C15.5818 27 12 23.866 12 20C12 16.134 15.5818 13 20 13C24.4182 13 28 16.134 28 20Z" fill="#615FFF"/>
<path d="M0 0H144V40H0z" fill="none"/>
<text x="4" y="18" font-family="Helvetica, Arial, sans-serif" font-size="16" fill="#FFFFFF" font-weight="700">Sri Sai Steel</text>
<text x="4" y="32" font-family="Helvetica, Arial, sans-serif" font-size="10" fill="#D1D5DB">Letters</text>
</svg>
